# xmcd
#
# Track frame offsets: 
#        150
#        16740
#        20662
#        47671
#        75942
#        159657
#        187275
#        204557
#        209694
#        226247
#
# Disc length: 3772 seconds
#
# Revision: 0
# Processed by: cddbd v1.5.2PL0 Copyright (c) Steve Scherf et al.
# Submitted via: ExactAudioCopy v0.99pb5
#
DISCID=7f0eba0a
DTITLE=Led Zeppelin  - Lost Mixes EP Vol 10 and Bonus - Disc 1
DYEAR=1900
DGENRE=
TTITLE0=The Wanton Song (take 1)
TTITLE1=The Wanton Song (take 2)
TTITLE2=Take Me Home
TTITLE3=In The Morning (take 1)
TTITLE4=Trampled Underfoot (takes 1-6)
TTITLE5=In The Morning (take 2)
TTITLE6=Sick Again
TTITLE7=The Rover
TTITLE8=Untitled Instrumental
TTITLE9=In My Time Of Dying (takes 1-5)
EXTD=
EXTT0=
EXTT1=
EXTT2=
EXTT3=
EXTT4=
EXTT5=
EXTT6=
EXTT7=
EXTT8=
EXTT9=
PLAYORDER=
